<svg xmlns="http://www.w3.org/2000/svg" width="18" height="18" viewBox="0 0 18 18">
    <g fill="none" fill-rule="evenodd">
        <circle cx="9" cy="9" r="8.25" stroke="#AC2626" stroke-width="1.5"/>
        <path fill="#AC2626" d="M8.196 10.276c0-.472.084-.872.252-1.2.168-.328.412-.688.732-1.08.256-.32.444-.588.564-.804.12-.216.18-.46.18-.732 0-.312-.108-.556-.324-.732-.216-.176-.516-.264-.9-.264-.36 0-.734.078-1.122.234a4.482 4.482 0 0 0-1.134.678L6 5.464c.336-.312.756-.56 1.26-.744a4.383 4.383 0 0 1 1.512-.276c.712 0 1.288.176 1.728.528.44.352.66.816.66 1.392 0 .288-.05.556-.15.804-.1.248-.224.466-.372.654a16.47 16.47 0 0 1-.594.702 7.87 7.87 0 0 0-.774.96 2.087 2.087 0 0 0-.318.912l-.048.264h-.708v-.384zM7.848 13v-1.428h1.428V13H7.848z"/>
    </g>
</svg>
