<svg xmlns="http://www.w3.org/2000/svg" width="32" height="38" viewBox="0 0 32 38">
    <g fill="none" fill-rule="evenodd">
        <path fill="#00CAFF" d="M0 38h32V9l-8-9H0z"/>
        <path fill="#FFF" d="M7.645 23.048h.952V24h-.952v-.952zm3.019.856c0 .507-.121.883-.364 1.128-.243.245-.633.384-1.172.416l-.368.024-.064-.6.384-.024c.261-.021.456-.099.584-.232.128-.133.192-.33.192-.592v-3.928h.808v3.808zM9.8 18.352h.928v.84H9.8v-.84zm5.207 1.904c.264.17.469.41.616.72.146.31.22.667.22 1.072 0 .4-.072.752-.216 1.056a1.631 1.631 0 0 1-.612.704 1.675 1.675 0 0 1-.908.248c-.294 0-.552-.063-.776-.188a1.238 1.238 0 0 1-.512-.54v2.112h-.808v-5.344h.808v.64c.117-.235.288-.416.512-.544.224-.128.482-.192.776-.192.336 0 .636.085.9.256zm-.276 2.804c.192-.237.288-.575.288-1.012 0-.443-.098-.787-.292-1.032-.195-.245-.466-.368-.812-.368-.352 0-.623.12-.812.36-.19.24-.284.581-.284 1.024 0 .443.094.784.284 1.024.189.24.46.36.812.36.352 0 .624-.119.816-.356zm5.57-.876h-2.76c.059.827.47 1.24 1.232 1.24.448 0 .854-.147 1.216-.44l.248.568a2.03 2.03 0 0 1-.672.368c-.266.09-.538.136-.816.136-.624 0-1.116-.179-1.476-.536-.36-.357-.54-.85-.54-1.48 0-.4.079-.755.236-1.064.158-.31.379-.55.664-.72.286-.17.61-.256.972-.256.528 0 .943.17 1.244.512.302.341.452.813.452 1.416v.256zm-2.42-1.3c-.184.195-.294.473-.332.836h2.056c-.016-.363-.108-.641-.276-.836-.168-.195-.404-.292-.708-.292-.309 0-.556.097-.74.292zm7.16-.788v3.592c0 .597-.16 1.048-.477 1.352-.317.304-.785.456-1.404.456-.336 0-.655-.044-.956-.132a2.696 2.696 0 0 1-.804-.38l.248-.584c.256.165.503.284.74.356.237.072.492.108.764.108.73 0 1.096-.37 1.096-1.112v-.616a1.226 1.226 0 0 1-.512.548c-.23.13-.496.196-.8.196-.341 0-.645-.08-.912-.24a1.614 1.614 0 0 1-.62-.68 2.243 2.243 0 0 1-.22-1.016c0-.384.075-.723.224-1.016.15-.293.356-.521.62-.684.264-.163.567-.244.908-.244.299 0 .561.064.788.192.227.128.399.31.516.544v-.64h.8zm-1.097 2.8c.197-.23.296-.547.296-.952 0-.4-.097-.716-.292-.948-.195-.232-.468-.348-.82-.348-.352 0-.628.115-.828.344-.2.23-.3.547-.3.952 0 .405.101.723.304.952.203.23.477.344.824.344s.619-.115.816-.344z"/>
        <path fill="#72E3FF" d="M32 9h-8V0z"/>
    </g>
</svg>
