<svg xmlns="http://www.w3.org/2000/svg" width="56" height="49" viewBox="0 0 56 49">
    <g fill="none" fill-rule="evenodd" transform="translate(.527)">
        <path fill="#F1B552" stroke="#1F589F" stroke-linecap="round" stroke-linejoin="round" stroke-width="1.2" d="M42.836 20.529c.421.433.68 1.024.68 1.672v22.798a2.405 2.405 0 0 1-2.399 2.401H3.003a2.405 2.405 0 0 1-2.399-2.401V22.201c0-.694.297-1.32.769-1.758h-.05L18.137 5.479a6 6 0 0 1 7.987.01l16.824 15.04h-.113z"/>
        <path fill="#FFF" d="M5.44 10.8h33.846v29.4H5.44z"/>
        <path fill="#FFD973" stroke="#1F589F" stroke-linecap="round" stroke-linejoin="round" stroke-width="1.2" d="M2.336 47.758h40.028a1.2 1.2 0 0 0 1.2-1.2V23.222a1.2 1.2 0 0 0-1.805-1.036L1.732 45.52a1.2 1.2 0 0 0 .604 2.237z"/>
        <path fill="#FFD973" stroke="#1F589F" stroke-linecap="round" stroke-linejoin="round" stroke-width="1.2" d="M42.033 47.958L1.5 47.52a1.2 1.2 0 0 1-1.187-1.2V23.218a1.2 1.2 0 0 1 1.803-1.037l40.532 23.54a1.2 1.2 0 0 1-.615 2.237z"/>
        <ellipse cx="42.308" cy="12.6" fill="#1DC4FF" rx="12.692" ry="12.6"/>
        <path stroke="#FFF" stroke-linecap="round" stroke-linejoin="round" stroke-width="1.2" d="M37.18 11.462l9.046-2.752-2.772 8.98-1.56-4.679z"/>
    </g>
</svg>
