<svg xmlns="http://www.w3.org/2000/svg" width="67" height="50" viewBox="0 0 67 50">
    <path fill="#A7B3B8" fill-rule="nonzero" d="M33.333 16.667l-12.5 12.5h8.334V50H37.5V29.167h8.333l-12.5-12.5zM54.167 12.5c-.57 0-1.115.092-1.669.167C49.325 5.22 41.935 0 33.333 0 24.73 0 17.346 5.22 14.166 12.667c-.55-.075-1.094-.167-1.666-.167C5.595 12.5 0 18.099 0 25c0 6.905 5.595 12.5 12.5 12.5 1.337 0 2.596-.277 3.8-.68 2.22 2.462 5.27 4.114 8.7 4.619V37.19c-3.245-.676-5.963-2.787-7.332-5.713-1.422 1.14-3.2 1.855-5.168 1.855-4.6 0-8.333-3.735-8.333-8.333 0-4.6 3.733-8.333 8.333-8.333 1.646 0 3.166.492 4.454 1.312 1.363-7.837 8.15-13.812 16.38-13.812 8.235 0 14.957 6.004 16.308 13.85a8.286 8.286 0 0 1 4.525-1.35c4.598 0 8.333 3.733 8.333 8.333 0 4.598-3.735 8.333-8.333 8.333a8.402 8.402 0 0 1-1.929-.244C50.354 35.75 47.262 37.5 43.75 37.5c-.72 0-1.408-.106-2.083-.26v4.227c.68.11 1.37.2 2.083.2 3.984 0 7.585-1.608 10.221-4.196.065 0 .122.029.196.029 6.905 0 12.5-5.595 12.5-12.5 0-6.901-5.595-12.5-12.5-12.5z"/>
</svg>
