<svg xmlns="http://www.w3.org/2000/svg" width="24" height="24" viewBox="0 0 24 24">
    <g fill="none" fill-rule="evenodd">
        <path d="M0 0h24v24H0z"/>
        <g fill="#FFF">
            <path d="M12 9.003c-2.206 0-4 1.794-4 4s1.794 4 4 4 4-1.794 4-4-1.794-4-4-4"/>
            <path d="M12 19.003c-3.31 0-6-2.69-6-6 0-3.308 2.69-6 6-6 3.309 0 6 2.692 6 6 0 3.31-2.691 6-6 6m8-13h-1.93a2.001 2.001 0 0 1-1.664-.89l-.812-1.22a2.001 2.001 0 0 0-1.664-.89h-3.86c-.668 0-1.293.334-1.664.89l-.812 1.22c-.371.556-.996.89-1.664.89H4a2 2 0 0 0-2 2v11a2 2 0 0 0 2 2h16a2 2 0 0 0 2-2v-11a2 2 0 0 0-2-2"/>
        </g>
    </g>
</svg>
