<svg xmlns="http://www.w3.org/2000/svg" width="169" height="100" viewBox="0 0 169 100">
    <g fill="none" fill-rule="nonzero">
        <path fill="#EDF7F7" d="M151.42 99.37c-2.776-35.521-32.493-63.47-68.707-63.47-36.215 0-65.93 27.949-68.707 63.47H151.42z"/>
        <g transform="translate(52.05 2.84)">
            <path fill="#421D1D" d="M30.158 13.754v50.473S1.514 67.192 1.514 53.217c0 0 7.697.979 6.12-5.457-1.987-8.139-.883-21.325 0-28.517.852-7.193 22.524-5.49 22.524-5.49z"/>
            <path fill="#421D1D" d="M30.063 13.754v50.473s28.644 2.965 28.644-11.01c0 0-7.698.979-6.12-5.457 1.987-8.139.883-21.325 0-28.517-.884-7.193-22.524-5.49-22.524-5.49z"/>
            <path fill="#3CBCA4" d="M30.662 56.72v-7.35s11.672-.348 11.672 6.718l-11.672.631zm-1.009 0v-7.35s-11.672-.348-11.672 6.718l11.672.631z"/>
            <path fill="#EFDBB5" d="M25.52 49.37h9.275v10.378h-9.274z"/>
            <path fill="#E7C6A2" d="M25.52 50.6s3.912 2.491 9.275 1.924V49.4h-9.274v1.198z"/>
            <ellipse cx="12.145" cy="33.249" fill="#FCBC85" rx="4.511" ry="5.174"/>
            <ellipse cx="48.17" cy="33.249" fill="#FCBC85" rx="4.511" ry="5.174"/>
            <path fill="#EFDBB5" d="M48.139 23.407c0-7.603-5.552-13.155-17.981-13.155-12.43 0-17.981 5.552-17.981 13.155 0 7.602-1.294 27.634 17.98 27.634 19.275 0 17.982-20.032 17.982-27.634z"/>
            <ellipse cx="21.388" cy="32.019" fill="#353D51" rx="1.956" ry="2.145"/>
            <circle cx="20.536" cy="31.073" r="1" fill="#BAC1CE"/>
            <path fill="#684B37" d="M18.265 27.413c.915.347 2.397-1.198 5.773.158.63.252.978-2.114-2.65-2.114-3.123 0-3.66 1.767-3.123 1.956z"/>
            <ellipse cx="39.148" cy="32.019" fill="#353D51" rx="1.956" ry="2.145"/>
            <circle cx="38.297" cy="31.073" r="1" fill="#BAC1CE"/>
            <path fill="#684B37" d="M42.019 27.413c-.915.347-2.398-1.198-5.773.158-.63.252-.978-2.114 2.65-2.114 3.123 0 3.69 1.767 3.123 1.956z"/>
            <path fill="#E7C6A2" d="M30.158 39.527c-1.925 0-3.092-1.451-3.092-.757 0 .694.568 2.019 3.092 2.019 2.523 0 3.091-1.325 3.091-2.02 0-.693-1.167.758-3.091.758zm0 6.404c-.663 0-1.073-.505-1.073-.253 0 .253.19.694 1.073.694s1.072-.441 1.072-.694c0-.252-.41.253-1.072.253zM30.158 44.132c-3.06 0-4.89-1.23-4.89-.914 0 .315.883 1.545 4.89 1.545 4.006 0 4.89-1.23 4.89-1.545 0-.316-1.862.914-4.89.914z"/>
            <g fill="#EFDBB5">
                <path d="M.473 83.785C-.82 90.19 2.208 92.84 5.363 96.278h6.435V77.382c-4.385-.915-7.54-1.294-8.927-1.42C1.798 78.96.883 81.735.473 83.785zM60.852 83.785c-.41-2.05-1.325-4.858-2.398-7.823-1.388.126-4.542.505-8.927 1.42v18.896h6.435c3.155-3.439 6.183-6.089 4.89-12.493z"/>
            </g>
            <path fill="#51AFB2" d="M50.19 62.808c0-.032-.032-.064-.032-.064-4.795-3.627-10.978-9.306-20.032-9.21-8.927.094-19.558 9.147-19.779 9.368-1.167 1.073-5.9 8.36-7.476 13.06 1.388.126 4.542.505 8.927 1.42v18.896H49.495V77.382c4.385-.915 7.54-1.294 8.928-1.42-1.136-5.836-8.202-13.154-8.234-13.154z"/>
            <path fill="#FFDCE7" d="M30.158 64.7V53.533c-2.966 0-5.868.568-8.486 1.42l8.486 9.747zM30.158 64.7V53.533c2.965 0 5.836.568 8.486 1.42L30.158 64.7z"/>
            <path fill="#F283B4" d="M30.158 53.533c-2.177 0-4.259.284-6.278.789.284 1.735 1.451 5.3 6.278 5.3 4.826 0 5.993-3.565 6.277-5.3a25.929 25.929 0 0 0-6.277-.789z"/>
            <path fill="#EFDBB5" d="M25.52 53.943s0 4.164 4.638 4.164c4.637 0 4.637-4.164 4.637-4.164s-4.827-1.766-9.274 0z"/>
            <path fill="#44D8BF" d="M23.06 54.416c.126-.914-5.394-.252-5.363 2.303.032 2.555 6.12 4.511 7.792 5.426 1.672.915 4.637 3.06 4.637 3.06s.568-2.145-2.05-3.817c-2.587-1.64-5.205-5.773-5.016-6.972z"/>
            <path fill="#44D8BF" d="M37.192 54.416c-.126-.914 5.395-.252 5.363 2.303-.031 2.555-6.12 4.511-7.792 5.426-1.672.915-4.637 3.06-4.637 3.06s-.568-2.145 2.05-3.817c2.556-1.64 5.174-5.773 5.016-6.972z"/>
            <path fill="#562725" d="M30.158.032c-20.852 0-23.66 18.201-23.66 31.64 0 13.438 6.94 21.23 12.366 23.407 0 0-8.675-15.363-4.416-29.59 3.502-11.64 15.678-8.202 15.678-8.202s12.177-3.438 15.678 8.202c4.26 14.227-4.416 29.59-4.416 29.59 5.426-2.177 12.366-9.969 12.366-23.407.031-13.439-2.745-31.64-23.596-31.64z"/>
            <path fill="#562725" d="M37.192 20.473s-7.823 3.912-14.731 3.123c-6.909-.788-9.559 6.372-9.149 11.136L11.01 24.164l4.165-8.36 11.892-6.12 11.23.505 5.332 4.637 4.51 5.616 3.187 3.69-1.546 11.389-3.217 3.943s2.933-14.606-9.37-18.99z"/>
            <path fill="#464655" d="M52.334 30.41s1.357-10.789-10.441-14.984c-.316-.095-.379-1.073-.063-.978 13.344 3.817 11.798 16.31 11.798 16.31l-1.294-.348zM49.211 39.905a1.01 1.01 0 0 1-1.072.884l-.915-.095a1.01 1.01 0 0 1-.883-1.073l1.04-9.747a1.01 1.01 0 0 1 1.073-.883l.915.094c.536.063.915.536.883 1.073l-1.04 9.747z"/>
            <path fill="#D12C20" d="M49.262 39.486l.947-8.845 1.631.175-.947 8.845z"/>
            <path fill="#FB503B" d="M52.303 30.19c-.19-.095-.379.03-.41.252l-1.01 9.59c-.031.22.126.347.347.315l1.23-.19c.221-.03.41-.252.442-.44l.915-8.487c.032-.22-.126-.441-.315-.536l-1.2-.505z"/>
            <path fill="#464655" d="M7.886 30.41S6.53 19.621 18.328 15.426c.316-.095.379-1.073.063-.978-13.344 3.817-11.798 16.31-11.798 16.31l1.293-.348zM10.978 39.905a1.01 1.01 0 0 0 1.072.884l.915-.095a1.01 1.01 0 0 0 .884-1.073l-1.041-9.747a1.01 1.01 0 0 0-1.073-.883l-.915.094a1.01 1.01 0 0 0-.883 1.073l1.04 9.747z"/>
            <path fill="#D12C20" d="M8.331 30.806l1.631-.175.948 8.845-1.631.175z"/>
            <path fill="#FB503B" d="M7.886 30.19c.19-.095.379.03.41.252l1.01 9.59c.032.22-.126.347-.347.315l-1.23-.19c-.221-.03-.41-.252-.442-.44l-.915-8.487c-.031-.22.126-.441.316-.536l1.198-.505zM43.47 14.48c-3.628-1.42-8.139-2.146-13.375-2.146-5.237 0-9.748.726-13.376 2.145a.956.956 0 0 0-.536 1.23.95.95 0 0 0 .883.6c.126 0 .221-.031.347-.063 3.407-1.325 7.666-2.019 12.682-2.019 5.015 0 9.274.694 12.681 2.02.126.03.22.062.347.062a.95.95 0 0 0 .883-.6.956.956 0 0 0-.536-1.23z"/>
            <circle cx="20.221" cy="39.937" r="1" fill="#E7C6A2"/>
            <circle cx="19.022" cy="41.451" r="1" fill="#E7C6A2"/>
            <circle cx="21.577" cy="41.703" r="1" fill="#E7C6A2"/>
            <circle cx="40.347" cy="39.874" r="1" fill="#E7C6A2"/>
            <circle cx="41.546" cy="41.388" r="1" fill="#E7C6A2"/>
            <circle cx="38.991" cy="41.64" r="1" fill="#E7C6A2"/>
            <g>
                <path fill="#E7E7E8" d="M56.12 93.943c0 .757-.6 1.357-1.357 1.357H6.562c-.758 0-1.357-.6-1.357-1.357V62.587c0-.757.6-1.357 1.357-1.357h48.201c.758 0 1.357.6 1.357 1.357v31.356z"/>
                <path fill="#DBDBDB" d="M53.628 93.628H7.666a.848.848 0 0 1-.852-.852V63.691c0-.473.378-.852.852-.852h45.93c.473 0 .852.379.852.852v29.085c.031.473-.347.852-.82.852zM7.666 63.186a.498.498 0 0 0-.505.505v29.085c0 .284.22.505.505.505h45.93c.284 0 .505-.221.505-.505V63.691a.498.498 0 0 0-.505-.505H7.666z"/>
                <path fill="#CECECF" d="M54.763 95.3H6.562a1.38 1.38 0 0 1-.79-.253v.063c0 .726.6 1.325 1.326 1.325h47.098c.725 0 1.325-.599 1.325-1.325v-.063c-.19.158-.474.253-.758.253z"/>
            </g>
            <path fill="#FFF" d="M32.46 77.16c0-.85.284-1.671.758-2.302a4.87 4.87 0 0 0-1.925-.379 5.076 5.076 0 0 0-5.078 5.08 5.076 5.076 0 0 0 5.078 5.078c2.272 0 4.196-1.514 4.858-3.564-2.082-.158-3.69-1.83-3.69-3.912z"/>
        </g>
        <path fill="#EDF7F7" d="M20.536 8.707a1.497 1.497 0 0 0-1.987-.726c-.032 0-.032.032-.063.032 0-.032 0-.032-.032-.063a1.497 1.497 0 0 0-1.987-.726c-.063.032-.095.063-.158.095a2.21 2.21 0 0 0-2.397-.347c-1.104.504-1.546 1.83-1.041 2.902l.094.19c-.82.44-1.167 1.45-.757 2.27.41.884 1.451 1.23 2.335.82.031 0 .063-.031.094-.031l5.174-2.429s.031 0 .031-.032l.032-.031.063-.032c.662-.315.946-1.167.6-1.892z"/>
        <g fill="#DAEEEF">
            <path d="M115.962 4.921a2.234 2.234 0 0 0-3.154.442 2.252 2.252 0 0 0-.442 1.356v.032c0 .094 0 .22.031.315 0 .253 0 .568-.126.789l-.347.473-.788 1.041c-.032.063-.032.126.031.19l1.64 1.23c.064.031.127.031.19-.032l.788-1.04.347-.474a1.65 1.65 0 0 1 .726-.316c.126 0 .22-.031.316-.063h.031c.473-.126.883-.41 1.199-.788a2.291 2.291 0 0 0-.442-3.155zM113.25 10l-1.42-1.073.253-.315 1.42 1.073-.253.315zm-1.83-.568l.253-.315 1.42 1.072-.253.316-1.42-1.073zm3.691-.788c-.126.031-.22.031-.315.063-.284.063-.631.189-.852.41l-.284.378-1.42-1.072.285-.379v-.031c.157-.284.157-.663.157-.947-.031-.094-.031-.189-.031-.315 0-.442.126-.883.41-1.23a1.972 1.972 0 0 1 2.776-.379 1.972 1.972 0 0 1 .379 2.776c-.284.347-.663.6-1.105.726z"/>
            <path d="M115.584 7.003l-.726-.284.789-.536c.031-.032.063-.063.063-.126s-.032-.095-.095-.095l-.946-.378c-.063-.032-.095 0-.126.031l-1.073 1.073c-.032.031-.032.063-.032.094 0 .032.032.063.064.095l.504.284-.6.725c-.03.032-.03.127 0 .158l.032.032c.032.031.095.031.127.031l2.05-.851c.063-.032.095-.064.095-.127-.032-.031-.063-.094-.126-.126zm-1.64.663l.346-.442c.032-.032.032-.063.032-.095 0-.031-.032-.063-.063-.094l-.505-.284.915-.883.63.252-.788.536c-.032.032-.063.063-.063.126s.031.095.095.095l.662.252-1.262.537zM117.855 8.896l-.789-.6c-.063-.063-.157-.031-.22.032-.064.063-.032.158.031.22l.789.6c.063.063.157.032.22-.031.064-.063.032-.158-.031-.221zM112.524 4.826l-.789-.599c-.063-.063-.158-.031-.22.032-.064.063-.032.157.03.22l.79.6c.062.063.157.031.22-.032a.194.194 0 0 0-.031-.22zM116.34 4.543c.064.063.158.031.222-.032l.599-.789c.063-.063.031-.157-.032-.22-.063-.064-.157-.032-.22.031l-.6.789c-.063.063-.031.157.032.22zM114.176 3.88c0 .032.035.063.07.095.034.031.068.031.137.031.103 0 .172-.094.138-.189l-.138-.978c0-.095-.103-.158-.207-.126-.103 0-.172.095-.137.19l.137.977zM117.445 6.482c.031.035.063.035.126.035l.978-.14c.095 0 .158-.105.126-.21 0-.106-.095-.176-.19-.14l-.977.14c-.095 0-.158.105-.126.21 0 .035.031.07.063.105z"/>
        </g>
        <g fill="#DAEEEF">
            <path d="M4.259 26.814a3.44 3.44 0 0 0-.694 4.858 3.447 3.447 0 0 0 1.83 1.262h.062c.158.031.316.063.505.094.347.095.852.253 1.104.505l.537.726L8.8 35.868c.063.094.19.094.284.031l2.524-1.893c.094-.063.094-.189.031-.284l-1.198-1.608-.537-.726c-.189-.347-.189-.852-.157-1.23.031-.158.031-.347.063-.505v-.032-.063c0-.757-.221-1.482-.694-2.082-1.167-1.482-3.344-1.798-4.858-.662zm6.34 6.214l-2.208 1.64-.378-.504 2.208-1.64.378.504zM8.991 35.49l-.379-.473 2.208-1.64.379.473-2.208 1.64zm.378-5.836c0 .19-.031.315-.031.473v.032c-.032.41 0 1.01.22 1.45 0 0 0 .032.032.032l.442.568-2.209 1.64-.441-.567s0-.032-.032-.032c-.347-.347-.915-.536-1.325-.63h-.031l-.473-.095a3.12 3.12 0 0 1-1.64-1.104 3.07 3.07 0 0 1 .63-4.29 3.07 3.07 0 0 1 4.29.63c.379.537.6 1.199.568 1.893z"/>
            <path d="M7.16 28.265l-.725.978-.441-1.388c-.032-.063-.095-.126-.158-.126a.338.338 0 0 0-.19.063l-.977 1.23a.194.194 0 0 0-.032.22l1.136 2.083a.173.173 0 0 0 .158.095c.063 0 .126 0 .157-.064l.663-.63.82 1.198a.245.245 0 0 0 .252.063c.032 0 .032-.031.063-.031.064-.032.095-.126.095-.19l-.41-3.406c0-.095-.063-.158-.158-.158a.245.245 0 0 0-.252.063zm.285 2.713l-.473-.694a.173.173 0 0 0-.158-.095c-.063 0-.095 0-.126.032l-.032.031-.662.631-.947-1.735.663-.82.441 1.388c.032.063.095.126.158.126a.338.338 0 0 0 .19-.063l.662-.883.284 2.082zM10.915 25.71l-1.23.915c-.095.094-.127.22-.064.347.095.094.221.126.347.063l1.262-.947c.095-.094.126-.22.063-.347-.063-.126-.252-.126-.378-.031zM2.618 31.893l-1.23.915c-.095.094-.126.22-.063.347.095.094.22.126.347.063l1.23-.915c.095-.095.126-.221.063-.347-.094-.126-.252-.158-.347-.063zM3.817 26.088c.095-.094.126-.22.063-.347l-.915-1.23c-.094-.095-.22-.126-.347-.063-.094.095-.126.22-.063.347l.915 1.23c.095.126.22.158.347.063zM1.893 29.054c.063 0 .126 0 .189-.032a.173.173 0 0 0 .095-.158c.031-.126-.063-.252-.19-.284l-1.514-.22c-.126-.032-.252.063-.284.189-.031.126.063.252.19.284l1.514.22zM7.098 25.268a.173.173 0 0 0 .094-.158l.221-1.514c.032-.126-.063-.252-.189-.284-.126-.031-.252.063-.284.19l-.22 1.514c-.032.126.062.252.189.284.063.031.126 0 .189-.032z"/>
        </g>
        <path fill="#DAEEEF" d="M41.514 11.23c-.568-.568-1.325-.851-2.082-.788l.694-.41c.19.189.505.252.757.094a.656.656 0 0 0 .221-.852.656.656 0 0 0-.852-.22c-.252.157-.347.441-.284.725l-1.23.726a.617.617 0 0 0-.757-.095c-.252.158-.347.442-.284.726l-1.293.788a.617.617 0 0 0-.757-.094.656.656 0 0 0-.221.851c.19.284.568.379.852.221.252-.158.347-.441.284-.725l.757-.474c-.41.631-.505 1.452-.284 2.209a.632.632 0 0 0-.158.82c.19.284.568.378.852.22a.656.656 0 0 0 .22-.851c-.126-.22-.41-.347-.63-.284-.253-.852 0-1.735.599-2.366.19.158.473.19.694.032.22-.127.347-.41.284-.631a2.369 2.369 0 0 1 2.366.6.567.567 0 0 0-.032.693c.19.284.568.379.852.22a.656.656 0 0 0 .22-.85.597.597 0 0 0-.788-.285zM40.41 9.274c.158-.094.347-.031.442.127.094.157.031.347-.126.441-.158.095-.347.032-.442-.126-.063-.126-.032-.347.126-.442zm-4.259 3.313c-.157.094-.347.031-.441-.126-.095-.158-.032-.347.126-.442.158-.095.347-.032.442.126.094.158.031.347-.127.442zm1.578 1.609c.094.157.031.347-.126.441-.158.095-.347.032-.442-.126-.095-.158-.032-.347.126-.442.158-.063.347-.031.442.127zm.757-2.997c-.158.094-.347.031-.442-.126-.094-.158-.031-.347.126-.442.158-.095.347-.032.442.126.063.158.032.347-.126.442zm3.438.851c-.157.095-.347.032-.441-.126-.095-.157-.032-.347.126-.441.158-.095.347-.032.441.126.095.158.032.378-.126.441z"/>
        <path fill="#FFF" d="M138.707 87.413h-.158v-1.577a.915.915 0 0 0-.915-.915h-10.22a.915.915 0 0 0-.916.915v12.618c0 .505.41.915.915.915h10.221c.505 0 .915-.41.915-.915V95.49h.158a4.025 4.025 0 0 0 4.037-4.038c.032-2.24-1.798-4.038-4.037-4.038zm0 6.562h-.158v-5.048h.158a2.531 2.531 0 0 1 2.523 2.524c.032 1.388-1.104 2.524-2.523 2.524z"/>
        <path fill="#E6E6E6" d="M138.549 98.454V95.49h.158a4.025 4.025 0 0 0 4.037-4.038 4.025 4.025 0 0 0-4.037-4.038h-.158v-1.577a.915.915 0 0 0-.915-.915h-5.11V99.37h5.11c.505 0 .915-.41.915-.915zm0-9.527h.158a2.531 2.531 0 0 1 2.523 2.524 2.531 2.531 0 0 1-2.523 2.524h-.158v-5.048z"/>
        <path fill="#C69C6D" d="M127.445 84.921a.915.915 0 0 0-.915.915v1.609c0 .505.41.915.915.915h.19c.504 0 .914.41.914.914v.505c0 .505.41.915.915.915h.189c.505 0 .915-.41.915-.915v-1.64c0-.505.41-.915.915-.915h.189c.505 0 .915.252.915.568 0 .315.41.568.915.568h.189c.505 0 .915-.41.915-.915v-.095c0-.505.41-.915.915-.915h.189c.505 0 .915.41.915.915v1.167c0 .505.41.915.914.915h.19c.504 0 .915-.41.915-.915v-2.681a.915.915 0 0 0-.915-.915h-10.284z"/>
        <path fill="#9BBB58" d="M25.426 93.88h19.243c.22 0 .41.19.41.41 0 .221-.19.41-.41.41H25.426a1.932 1.932 0 0 0-1.924 1.925c0 1.072.883 1.924 1.924 1.924h19.243c.22 0 .41.19.41.41 0 .22-.19.41-.41.41H25.426a2.746 2.746 0 0 1-2.745-2.744 2.746 2.746 0 0 1 2.745-2.745z"/>
        <path fill="#FFF" d="M23.47 96.625c0-1.073.883-1.925 1.924-1.925h18.928v3.88H25.426c-1.073-.031-1.956-.883-1.956-1.955z"/>
        <path fill="#F2F2F2" d="M27.413 95.363h16.94v.3h-16.94zM29.748 97.855h12.807v.3H29.748zM32.713 96.94h11.672v.3H32.713zM25.647 96.12h15.426v.3H25.647z"/>
        <path fill="#FB503B" d="M28.139 99.085l-1.136-.536-1.135.536V96.12h2.27z"/>
        <path fill="#8064A1" d="M26.814 88.36h19.243c.22 0 .41.189.41.41 0 .22-.19.41-.41.41H26.814a1.932 1.932 0 0 0-1.924 1.924c0 1.073.883 1.924 1.924 1.924h19.243c.22 0 .41.19.41.41 0 .221-.19.41-.41.41H26.814a2.746 2.746 0 0 1-2.745-2.744 2.746 2.746 0 0 1 2.745-2.744z"/>
        <path fill="#FFF" d="M24.89 91.104c0-1.072.883-1.924 1.924-1.924H45.74v3.88H26.814c-1.041 0-1.924-.883-1.924-1.956z"/>
        <path fill="#F2F2F2" d="M28.833 89.842h16.94v.3h-16.94zM31.167 92.334h12.808v.3H31.167zM34.1 91.42h11.673v.3H34.1zM27.066 90.6h15.426v.3H27.066z"/>
        <path fill="#FB503B" d="M29.527 93.69l-1.104-.535-1.136.536V91.42h2.24z"/>
        <path fill="#DAEEEF" d="M12.24 52.492c-.757.789-.82 1.388-.82 1.64 0 .064.031.127.094.158l3.88 3.723a.979.979 0 0 0 .568.284l2.524.473c.19.031.347-.126.284-.316l-.6-2.523a1.262 1.262 0 0 0-.315-.568l-3.88-3.723c-.063-.063-.126-.063-.19-.063-.22.032-.82.158-1.545.915zm5.457 3.407l.221.978c0 .032 0 .063-.032.095a2.7 2.7 0 0 0-.536.41 2.7 2.7 0 0 0-.41.536c-.031.032-.063.063-.095.032l-.977-.19-.316-.284s0-.567.631-1.23c.63-.662 1.199-.662 1.199-.662l.315.315zM153.596 59.59c-.41-.568-.788-.694-.946-.726-.032 0-.095 0-.126.032l-2.84 2.019a.801.801 0 0 0-.252.315l-.6 1.546c-.03.126.032.22.159.22l1.671-.062c.158 0 .284-.063.41-.126l2.84-2.02c.063-.03.063-.062.063-.126.031-.094.031-.504-.379-1.072zm-2.839 3.06l-.662.031c-.032 0-.032 0-.063-.031a1.066 1.066 0 0 0-.19-.379.946.946 0 0 0-.284-.315c-.031-.032-.031-.063 0-.063l.253-.6.22-.157s.348.063.695.567c.347.474.283.852.283.852l-.252.095zM6.34 76.278c-.788.063-1.514.441-1.955 1.072l.126-.788a.67.67 0 0 0 .568-.505c.031-.347-.19-.663-.505-.726-.347-.031-.662.19-.725.505-.032.284.094.536.378.694l-.252 1.42a.67.67 0 0 0-.568.504c-.063.284.095.537.378.694l-.252 1.483a.67.67 0 0 0-.568.505c-.031.347.19.662.505.725.347.032.662-.19.726-.505.031-.283-.095-.536-.379-.694l.126-.883a2.63 2.63 0 0 0 1.483 1.64.62.62 0 0 0 .505.663c.347.032.662-.19.725-.505.032-.347-.19-.662-.505-.725a.596.596 0 0 0-.63.284 2.364 2.364 0 0 1-1.389-1.988c.253-.031.442-.22.474-.504a.596.596 0 0 0-.284-.631 2.34 2.34 0 0 1 1.987-1.388c.032.252.221.441.505.473.347.031.662-.19.725-.505.032-.347-.189-.662-.504-.725-.284-.064-.6.126-.694.41zm-2.176-.442c.032-.19.19-.284.379-.252.189.031.283.189.252.378-.032.19-.19.284-.379.253-.157 0-.284-.19-.252-.379zM3.88 81.23c-.031.19-.19.284-.378.253-.19-.032-.284-.19-.253-.379.032-.19.19-.284.379-.252.189.031.284.22.252.378zm2.24-.126c.19.032.284.19.252.379-.031.189-.189.284-.378.252-.19-.032-.284-.19-.253-.379.063-.157.221-.283.379-.252zM4.353 78.55c-.031.19-.189.284-.378.252-.19-.031-.284-.189-.253-.378.032-.19.19-.284.379-.253.158.063.284.221.252.379zm2.903-2.05c-.032.189-.19.283-.379.252-.19-.032-.284-.19-.252-.379.031-.189.189-.284.378-.252.158.031.284.22.253.378zM137.95 4.7l-.127-.094.095-.127c.063-.063.032-.157-.032-.22l-3.091-2.366c-.063-.063-.158-.032-.22.031l-1.83 2.366a.749.749 0 0 0 .126 1.041l2.145 1.64a.749.749 0 0 0 1.04-.126l.442-.599.127.095c.441.347 1.104.252 1.45-.19a.986.986 0 0 0-.125-1.45zm-1.105 1.42l-.126-.095.915-1.199.126.095a.749.749 0 0 1 .126 1.041c-.252.347-.694.41-1.04.158zm.505-2.618l.473.378c.032.032.095.032.158 0l.915-.442c.252.158.6.064.883-.189a1.14 1.14 0 0 0 .095-1.514c-.032-.063-.095-.063-.158-.063-.063.031-.095.063-.095.126-.031.284-.189.347-.441.41l-.284.095a.737.737 0 0 0-.316.378.27.27 0 0 0 0 .221l-.977.284-.064.032-.126.031c-.063.032-.094.063-.094.126s0 .095.031.127zm1.704-.947c.031-.031.126-.031.189-.063.19-.031.41-.095.568-.315.094.315-.032.63-.221.851-.158.158-.379.284-.568.127l-.158-.221a.201.201 0 0 1 0-.19.284.284 0 0 1 .19-.189zM135.899.126c-.031-.063-.063-.094-.126-.094s-.126.031-.126.063l-.41.757.946-.032-.284-.694zm-.662 1.735l.725.536c.063.064.158.032.19-.031-.032.063-.032.158.031.19l.946.725c.063.063.158.031.221-.032l.095-.126-.284-.22a.194.194 0 0 1-.032-.222.194.194 0 0 1 .221-.031l.284.22.19-.252-.6-.441a.194.194 0 0 1-.032-.221.194.194 0 0 1 .221-.032l.6.442.189-.252-.284-.221a.194.194 0 0 1-.032-.221.194.194 0 0 1 .221-.032l.284.221.19-.22-.6-.442a.194.194 0 0 1-.031-.221.194.194 0 0 1 .22-.032l.6.442.22-.22c.064-.064.032-.159-.031-.222l-.946-.725c-.063-.063-.158-.032-.221.031l-1.64 2.114c.031-.032.031-.063.031-.095l.032-1.135-1.041.031v.568a.24.24 0 0 0 .063.126z"/>
        <g fill="#DAEEEF">
            <path d="M167.192 84.416c-.063.095-.157.158-.22.221-.19.253-.474.379-.726.316-.347-.095-.473-.568-.315-1.041a1.09 1.09 0 0 1 .22-.379l.568-1.356.221-.568c-.694-.726-1.798-1.167-3.312-.915-3.281.536-4.29 4.543-2.177 6.404 1.987 1.766 3.028.568 3.786-.757a.47.47 0 0 1 .473-.221c.536.063 1.672 0 2.05-1.388.095-.379.126-.82.063-1.23l-.63.914zm-4.89-1.735a.7.7 0 0 1 .695.694.7.7 0 0 1-.694.694.7.7 0 0 1-.694-.694.7.7 0 0 1 .694-.694zm-.41 3.123a.7.7 0 0 1-.693-.694.7.7 0 0 1 .694-.694.7.7 0 0 1 .694.694.7.7 0 0 1-.694.694zm1.326 1.357a.7.7 0 0 1-.694-.694.7.7 0 0 1 .694-.694.7.7 0 0 1 .694.694.7.7 0 0 1-.694.694zm.567-4.29a.7.7 0 0 1-.694-.694.7.7 0 0 1 .694-.694.7.7 0 0 1 .694.694c-.031.378-.315.694-.694.694zM168.202 80.347c-.442.032-.757.442-.757.442l-.063.063a.882.882 0 0 0 .094 1.198.882.882 0 0 0 1.2-.094c.094-.126.157-.284.188-.442.158-.757-.157-1.293-.157-1.293s-.063.094-.505.126z"/>
            <path d="M166.278 84.637c.157.095.441-.031.63-.252l.82-1.104a2.45 2.45 0 0 1-.946-.505l-.063-.063-.536 1.23c-.126.316-.063.6.095.694zM167.413 82.145a1.2 1.2 0 0 1-.284-.41l-.252.568c.22.22.694.568 1.104.568l.442-.6c-.316.19-.726.126-1.01-.126z"/>
        </g>
        <path fill="#DAEEEF" d="M129.558 29.937l-1.703-1.704-.22-.252-.569.568c-.978-.126-1.703.22-1.956.662-.315.537 0 1.136.032 1.168.252.536.63.851 1.104.946.095.031.22.031.316.031.504 0 1.009-.22 1.388-.441.094.063.22.126.347.126.347 0 .63-.284.63-.63a.633.633 0 0 0-.63-.632.633.633 0 0 0-.631.631v.095c-.379.22-.884.41-1.325.347-.316-.063-.568-.284-.789-.663 0 0-.19-.378-.031-.694.157-.252.504-.41 1.072-.473l-.095.095-.82.82v.031c.095.158.158.284.253.379l1.482-1.483a.358.358 0 0 1 .253-.094c.094 0 .189.031.252.094l1.798 1.798a.363.363 0 0 1 0 .537l-2.334 2.334c-.126.126-.379.126-.537 0l-1.798-1.798a.358.358 0 0 1-.094-.252c0-.095.031-.19.094-.253l.19-.189a1.2 1.2 0 0 1-.284-.41l-.158.19a.88.88 0 0 0-.252.63c0 .252.094.442.252.631l1.798 1.798a.862.862 0 0 0 .6.252c.22 0 .441-.094.599-.252l2.334-2.334.505-.473-.126-.127c.252-.126.378 1.041.378 1.041s.347 2.808.694 0c.284-2.776-1.83-2.113-2.019-2.05z"/>
        <g fill="#DAEEEF">
            <path d="M158.833 34.07a2.704 2.704 0 0 0-3.723-.852 2.825 2.825 0 0 0-1.104 1.325v.063l-.094.378c-.095.284-.253.631-.474.852l-.599.379-1.356.788c-.063.032-.095.158-.063.221l1.293 2.082c.031.063.158.095.22.063l1.357-.82.6-.379c.284-.126.662-.094.946-.063.126.032.252.063.379.063h.031c.6.063 1.167-.094 1.672-.378a2.668 2.668 0 0 0 .915-3.723zm-5.237 4.542l-1.135-1.83.41-.252 1.135 1.83-.41.252zm-1.798-1.42l.41-.252 1.136 1.83-.41.252-1.136-1.83zm4.511.663s-.031 0 0 0c-.126 0-.252-.032-.378-.063h-.032c-.315-.032-.789-.063-1.136.063h-.031l-.473.284-1.136-1.83.473-.284h.032c.284-.252.473-.662.568-.978v-.031c.031-.126.063-.253.094-.347.19-.505.536-.915.978-1.199 1.104-.694 2.587-.347 3.28.757.695 1.104.348 2.587-.756 3.28-.442.285-.947.411-1.483.348z"/>
            <path d="M157.54 36.246l-.695-.63 1.105-.253c.063 0 .094-.063.126-.126 0-.063 0-.127-.032-.158l-.883-.852c-.032-.031-.126-.063-.158-.031l-1.672.757-.094.094c0 .063 0 .095.031.127l.473.567-.978.568c-.063.032-.094.095-.063.19 0 0 0 .031.032.031.031.063.094.063.126.063l2.681-.095c.064 0 .127-.031.127-.094-.063-.032-.095-.126-.127-.158zm-2.146.032l.568-.316c.032-.031.063-.063.063-.094 0-.032 0-.064-.031-.127v-.031l-.442-.536 1.388-.631.6.567-1.105.253c-.063 0-.094.063-.126.126 0 .063 0 .126.032.158l.63.568-1.577.063zM159.274 39.338l-.63-1.01c-.064-.095-.158-.126-.253-.063-.094.063-.126.158-.063.252l.631 1.01c.063.094.158.126.252.063.095-.032.127-.158.063-.252zM154.984 32.46l-.63-1.009c-.064-.095-.158-.126-.253-.063s-.126.158-.063.252l.63 1.01c.064.094.158.126.253.063.095-.032.126-.158.063-.252zM159.432 33.785c.063.095.158.127.253.064l1.009-.631c.095-.063.126-.158.063-.253-.063-.094-.158-.126-.252-.063l-1.01.631c-.094.032-.126.158-.063.252zM157.256 32.082c0 .063 0 .095.031.126a.435.435 0 0 0 .126.095c.095.031.19-.032.221-.126l.284-1.168c.032-.094-.032-.189-.126-.22-.095-.032-.19.031-.221.126l-.315 1.167zM159.874 36.372c.031.032.063.063.126.095l1.167.284c.095.031.19-.032.221-.126.032-.095-.032-.19-.126-.221l-1.167-.284c-.095-.032-.19.031-.221.126a.096.096 0 0 0 0 .126z"/>
        </g>
        <path fill="#EDF7F7" d="M36.435 38.927l3.975-3.123-2.618-.694.031 2.05-1.388-.283v2.05zm1.42-7.57c.284-.221.789-.158 1.01.126l3.122 3.974c.221.284.158.79-.126 1.01l-5.11 4.038c-.316.252-.789.189-1.01-.126l-3.123-3.975c-.22-.284-.157-.789.126-1.01l5.11-4.038z"/>
    </g>
</svg>
