<svg xmlns="http://www.w3.org/2000/svg" xmlns:xlink="http://www.w3.org/1999/xlink" width="60" height="60" viewBox="0 0 60 60">
    <defs>
        <circle id="a" cx="30" cy="30" r="30"/>
    </defs>
    <g fill="none" fill-rule="evenodd">
        <mask id="b" fill="#fff">
            <use xlink:href="#a"/>
        </mask>
        <use fill="#E6E6E6" xlink:href="#a"/>
        <g fill="#FFF" fill-rule="nonzero" mask="url(#b)">
            <path d="M40.607 34.393a14.942 14.942 0 0 0-5.7-3.575 8.669 8.669 0 0 0 3.765-7.146C38.672 18.89 34.782 15 30 15s-8.672 3.89-8.672 8.672a8.669 8.669 0 0 0 3.765 7.146 14.942 14.942 0 0 0-5.7 3.575A14.902 14.902 0 0 0 15 45h2.344c0-6.979 5.677-12.656 12.656-12.656 6.979 0 12.656 5.677 12.656 12.656H45c0-4.007-1.56-7.773-4.393-10.607zM30 30a6.335 6.335 0 0 1-6.328-6.328A6.335 6.335 0 0 1 30 17.344a6.335 6.335 0 0 1 6.328 6.328A6.335 6.335 0 0 1 30 30z"/>
        </g>
    </g>
</svg>
