<svg xmlns="http://www.w3.org/2000/svg" width="32" height="38" viewBox="0 0 32 38">
    <g fill="none" fill-rule="evenodd">
        <path fill="#FFA100" d="M0 38h32V9l-8-9H0z"/>
        <path fill="#FFF" d="M9.87 23.048h.952V24H9.87v-.952zm3.02.856c0 .507-.122.883-.365 1.128-.242.245-.633.384-1.172.416l-.368.024-.064-.6.384-.024c.262-.021.456-.099.584-.232.128-.133.192-.33.192-.592v-3.928h.808v3.808zm-.865-5.552h.928v.84h-.928v-.84zm5.207 1.904c.264.17.47.41.616.72.147.31.22.667.22 1.072 0 .4-.072.752-.216 1.056a1.631 1.631 0 0 1-.612.704 1.675 1.675 0 0 1-.908.248c-.293 0-.552-.063-.776-.188a1.238 1.238 0 0 1-.512-.54v2.112h-.808v-5.344h.808v.64c.117-.235.288-.416.512-.544.224-.128.483-.192.776-.192.336 0 .636.085.9.256zm-.276 2.804c.192-.237.288-.575.288-1.012 0-.443-.097-.787-.292-1.032-.195-.245-.465-.368-.812-.368-.352 0-.623.12-.812.36-.19.24-.284.581-.284 1.024 0 .443.095.784.284 1.024.19.24.46.36.812.36.352 0 .624-.119.816-.356zm5.859-2.964v3.592c0 .597-.159 1.048-.476 1.352-.318.304-.786.456-1.404.456-.336 0-.655-.044-.956-.132a2.696 2.696 0 0 1-.804-.38l.248-.584c.256.165.502.284.74.356.237.072.492.108.764.108.73 0 1.096-.37 1.096-1.112v-.616a1.226 1.226 0 0 1-.512.548c-.23.13-.496.196-.8.196-.342 0-.646-.08-.912-.24a1.614 1.614 0 0 1-.62-.68 2.243 2.243 0 0 1-.22-1.016c0-.384.074-.723.224-1.016.15-.293.356-.521.62-.684.264-.163.566-.244.908-.244.298 0 .561.064.788.192.226.128.398.31.516.544v-.64h.8zm-1.096 2.8c.197-.23.296-.547.296-.952 0-.4-.098-.716-.292-.948-.195-.232-.468-.348-.82-.348-.352 0-.628.115-.828.344-.2.23-.3.547-.3.952 0 .405.101.723.304.952.202.23.477.344.824.344.346 0 .618-.115.816-.344z"/>
        <path fill="#FFC861" d="M32 9h-8V0z"/>
    </g>
</svg>
