<svg xmlns="http://www.w3.org/2000/svg" xmlns:xlink="http://www.w3.org/1999/xlink" width="24" height="24" viewBox="0 0 24 24">
    <defs>
        <path id="a" d="M5 0h713a5 5 0 0 1 5 5v565a5 5 0 0 1-5 5H5a5 5 0 0 1-5-5V5a5 5 0 0 1 5-5z"/>
        <filter id="b" width="102.9%" height="103.8%" x="-1.5%" y="-1.1%" filterUnits="objectBoundingBox">
            <feOffset dy="4" in="SourceAlpha" result="shadowOffsetOuter1"/>
            <feGaussianBlur in="shadowOffsetOuter1" result="shadowBlurOuter1" stdDeviation="1.5"/>
            <feColorMatrix in="shadowBlurOuter1" result="shadowMatrixOuter1" values="0 0 0 0 0 0 0 0 0 0 0 0 0 0 0 0 0 0 0.05 0"/>
            <feOffset dy="1" in="SourceAlpha" result="shadowOffsetOuter2"/>
            <feGaussianBlur in="shadowOffsetOuter2" result="shadowBlurOuter2" stdDeviation="2"/>
            <feColorMatrix in="shadowBlurOuter2" result="shadowMatrixOuter2" values="0 0 0 0 0 0 0 0 0 0 0 0 0 0 0 0 0 0 0.11 0"/>
            <feMerge>
                <feMergeNode in="shadowMatrixOuter1"/>
                <feMergeNode in="shadowMatrixOuter2"/>
            </feMerge>
        </filter>
    </defs>
    <g fill="none" fill-rule="evenodd">
        <g transform="translate(-187 -510)">
            <mask id="c" fill="#fff">
                <use xlink:href="#a"/>
            </mask>
            <use fill="#000" filter="url(#b)" xlink:href="#a"/>
            <use fill="#FFF" xlink:href="#a"/>
            <g font-family="NunitoSans-Regular, Nunito Sans" font-size="13" letter-spacing=".325" mask="url(#c)">
                <text fill="#404852" transform="translate(30 495)">
                    <tspan x="60" y="24">Lengkapi Info Data Identitas Anda</tspan>
                </text>
            </g>
        </g>
        <path fill="#232A30" fill-opacity=".85" d="M-683-630H757V394H-683z"/>
        <path fill="#FFF" d="M-236.005-473.5l546-1.501a2 2 0 0 1 2.005 2V75a2 2 0 0 1-2 2h-546a2 2 0 0 1-2-2v-546.5a2 2 0 0 1 1.995-2z"/>
        <path fill="#2196F3" d="M-141-12.864L215-13a2 2 0 0 1 2 2v46a2 2 0 0 1-2 2h-356a2 2 0 0 1-2-2v-45.863a2 2 0 0 1 2-2z"/>
        <circle cx="12" cy="12" r="8" fill="#F8F8F8"/>
        <path fill="#1DAE10" stroke="#1DAE10" stroke-width=".5" d="M10.153 16.65L7 13.497l1.12-1.12 1.916 1.915L15.184 8l1.226 1.003z"/>
    </g>
</svg>
