<svg xmlns="http://www.w3.org/2000/svg" width="28" height="26" viewBox="0 0 28 26">
    <g fill="none" fill-rule="evenodd">
        <circle cx="14" cy="13" r="12.35" fill="#FFF" stroke="#404852" stroke-width="1.3"/>
        <path d="M6 5h17v17H6z"/>
        <path fill="#404852" d="M10.443 12.258a10.225 10.225 0 0 0 4.449 4.448l1.485-1.485a.671.671 0 0 1 .688-.162 7.7 7.7 0 0 0 2.41.385c.371 0 .675.304.675.675v2.356a.677.677 0 0 1-.675.675C13.137 19.15 8 14.013 8 7.675 8 7.304 8.304 7 8.675 7h2.362c.372 0 .675.304.675.675 0 .844.135 1.654.385 2.41.074.236.02.5-.169.688l-1.485 1.485z"/>
    </g>
</svg>
