<svg xmlns="http://www.w3.org/2000/svg" width="24" height="24" viewBox="0 0 24 24">
    <path fill="#FFF" fill-rule="evenodd" d="M5.707 14.707L4.414 16H7c2.275 0 3.772-1.874 5.276-4C10.772 9.874 9.275 8 7 8H4.414l1.293 1.293-1.414 1.414L.586 7l3.707-3.707 1.414 1.414L4.414 6H7c2.995 0 4.901 2.086 6.5 4.275C15.099 8.086 17.005 6 20 6h4v2h-4c-2.275 0-3.772 1.874-5.276 4 1.504 2.126 3.001 4 5.276 4h4v2h-4c-2.995 0-4.901-2.086-6.5-4.275C11.901 15.914 9.995 18 7 18H4.414l1.293 1.293-1.414 1.414L.586 17l3.707-3.707 1.414 1.414z"/>
</svg>
