<svg xmlns="http://www.w3.org/2000/svg" width="54" height="40" viewBox="0 0 54 40">
    <path fill="#A7B3B8" fill-rule="nonzero" d="M26.667 13.333l-10 10h6.666V40H30V23.333h6.667l-10-10zM43.333 10c-.455 0-.892.073-1.334.133C39.459 4.176 33.549 0 26.667 0c-6.883 0-12.79 4.176-15.334 10.133-.44-.06-.876-.133-1.333-.133-5.524 0-10 4.48-10 10 0 5.524 4.476 10 10 10 1.07 0 2.077-.221 3.04-.544 1.776 1.97 4.216 3.291 6.96 3.695v-3.398c-2.596-.54-4.77-2.23-5.866-4.57-1.138.91-2.56 1.484-4.134 1.484A6.67 6.67 0 0 1 3.333 20 6.67 6.67 0 0 1 10 13.333c1.317 0 2.533.394 3.563 1.05 1.09-6.27 6.52-11.05 13.104-11.05 6.588 0 11.966 4.803 13.047 11.081a6.629 6.629 0 0 1 3.62-1.08A6.67 6.67 0 0 1 50 20a6.671 6.671 0 0 1-6.667 6.667 6.722 6.722 0 0 1-1.543-.196C40.283 28.601 37.81 30 35 30a7.417 7.417 0 0 1-1.667-.208v3.382c.544.088 1.097.16 1.667.16 3.187 0 6.068-1.287 8.177-3.357.052 0 .098.023.156.023 5.524 0 10-4.476 10-10 0-5.52-4.476-10-10-10z"/>
</svg>
