<svg xmlns="http://www.w3.org/2000/svg" width="40" height="40" viewBox="0 0 40 40">
    <g fill="none" fill-rule="evenodd" stroke="#404F69" stroke-linecap="round" stroke-linejoin="round" stroke-width="1.5" transform="translate(10 10)">
        <path d="M4.575 15.112C1.831 15.495 0 16.182 0 16.968c0 1.201 4.287 2.175 9.575 2.175 5.288 0 9.575-.974 9.575-2.175 0-.76-1.714-1.429-4.312-1.818"/>
        <path d="M9.575 16.533c4.353-3.688 6.529-7.024 6.529-10.007A6.527 6.527 0 0 0 9.575 0a6.527 6.527 0 0 0-6.528 6.526c0 2.983 2.176 6.319 6.528 10.007z"/>
        <ellipse cx="9.575" cy="6.526" rx="1.67" ry="1.669"/>
    </g>
</svg>
