<svg xmlns="http://www.w3.org/2000/svg" width="24" height="24" viewBox="0 0 24 24">
    <g fill="#FFF" fill-rule="evenodd">
        <path d="M13 12V5.414l1.293 1.293 1.414-1.414L12 1.586 8.293 5.293l1.414 1.414L11 5.414V12z"/>
        <path d="M16.242 9.758A5.966 5.966 0 0 1 18 14a5.953 5.953 0 0 1-1.758 4.24A5.961 5.961 0 0 1 12 20a5.956 5.956 0 0 1-4.242-1.758A5.952 5.952 0 0 1 6 14c0-1.602.624-3.11 1.757-4.243L6.343 8.344A7.945 7.945 0 0 0 4 14c0 2.137.832 4.145 2.343 5.655A7.94 7.94 0 0 0 12 22a7.95 7.95 0 0 0 5.657-2.343A7.946 7.946 0 0 0 20 14a7.95 7.95 0 0 0-2.344-5.657l-1.414 1.414z"/>
    </g>
</svg>
