<svg xmlns="http://www.w3.org/2000/svg" width="24" height="24" viewBox="0 0 24 24">
    <g fill="#4A90E2" fill-rule="nonzero" stroke="#4A90E2" stroke-width=".5">
        <path d="M12.833 22h-1.666c-.69 0-1.25-.56-1.25-1.25v-1.552a7.438 7.438 0 0 1-1.534-.636L7.285 19.66c-.472.473-1.295.472-1.768 0L4.34 18.482a1.24 1.24 0 0 1-.367-.884c0-.334.13-.648.367-.884l1.098-1.098a7.39 7.39 0 0 1-.636-1.533H3.25c-.69 0-1.25-.56-1.25-1.25v-1.667c0-.334.13-.648.366-.883.236-.236.55-.367.884-.367h1.552a7.44 7.44 0 0 1 .635-1.533L4.34 7.285a1.25 1.25 0 0 1 0-1.767l1.178-1.179c.472-.472 1.296-.472 1.768 0l1.098 1.098c.487-.269 1-.482 1.533-.635V3.25c0-.69.56-1.25 1.25-1.25h1.666c.69 0 1.25.56 1.25 1.25v1.552a7.443 7.443 0 0 1 1.533.635l1.098-1.098c.472-.472 1.295-.472 1.768 0l1.178 1.178c.237.236.367.55.367.884 0 .334-.13.648-.367.884l-1.097 1.098c.27.487.482 1 .636 1.533h1.551c.69 0 1.25.561 1.25 1.25v1.667c0 .334-.13.648-.366.884s-.55.366-.884.366h-1.552a7.437 7.437 0 0 1-.636 1.533l1.098 1.098a1.25 1.25 0 0 1 0 1.768l-1.178 1.178c-.473.473-1.296.473-1.768 0l-1.097-1.098c-.487.27-1 .482-1.533.636v1.552c0 .69-.561 1.25-1.25 1.25zm-4.518-4.376c.075 0 .15.02.218.061.59.36 1.228.626 1.898.788a.417.417 0 0 1 .319.405v1.872c0 .23.187.417.417.417h1.666c.23 0 .417-.187.417-.417v-1.872c0-.193.132-.36.319-.405a6.615 6.615 0 0 0 1.898-.788.417.417 0 0 1 .512.061l1.324 1.325a.43.43 0 0 0 .59 0l1.178-1.179a.417.417 0 0 0 0-.59l-1.324-1.324a.417.417 0 0 1-.061-.512c.36-.589.625-1.228.787-1.898a.417.417 0 0 1 .405-.32h1.872a.415.415 0 0 0 .417-.415v-1.667a.417.417 0 0 0-.417-.416h-1.872a.416.416 0 0 1-.405-.32 6.604 6.604 0 0 0-.787-1.898.417.417 0 0 1 .06-.512l1.325-1.325a.42.42 0 0 0 0-.59L17.892 4.93a.428.428 0 0 0-.59 0l-1.324 1.324a.415.415 0 0 1-.512.061 6.61 6.61 0 0 0-1.897-.787.415.415 0 0 1-.319-.404V3.25a.417.417 0 0 0-.417-.417h-1.666a.417.417 0 0 0-.417.417v1.872c0 .193-.132.36-.319.405a6.614 6.614 0 0 0-1.898.787.416.416 0 0 1-.512-.06L6.697 4.928a.428.428 0 0 0-.59 0L4.93 6.107a.417.417 0 0 0 0 .59L6.254 8.02a.417.417 0 0 1 .06.512 6.607 6.607 0 0 0-.787 1.898.417.417 0 0 1-.405.319H3.25a.415.415 0 0 0-.417.416v1.667c0 .23.187.417.417.417h1.872c.193 0 .36.131.405.319a6.61 6.61 0 0 0 .787 1.898c.1.164.076.375-.06.512l-1.325 1.325a.42.42 0 0 0 0 .59l1.178 1.177a.428.428 0 0 0 .59 0l1.324-1.324a.412.412 0 0 1 .294-.123z"/>
        <path d="M12 16.167A4.171 4.171 0 0 1 7.833 12 4.171 4.171 0 0 1 12 7.833 4.171 4.171 0 0 1 16.167 12 4.171 4.171 0 0 1 12 16.167zm0-7.5A3.337 3.337 0 0 0 8.667 12 3.337 3.337 0 0 0 12 15.333 3.337 3.337 0 0 0 15.333 12 3.337 3.337 0 0 0 12 8.667z"/>
    </g>
</svg>
